HIERARCHY
ROOT Hips
{
  OFFSET 1.44925e-005 102.336 -0.101585
  CHANNELS 6 Xposition Yposition Zposition Zrotation Xrotation Yrotation
  JOINT LeftUpLeg
  {
    OFFSET 8.9458 -8.66707 0.101652
    CHANNELS 3 Zrotation Xrotation Yrotation
    JOINT LeftLeg
    {
      OFFSET 0 -44.4227 1.3727
      CHANNELS 3 Zrotation Xrotation Yrotation
      JOINT LeftFoot
      {
        OFFSET -0.253549 -42.0924 -1.46059
        CHANNELS 3 Zrotation Xrotation Yrotation
        JOINT LeftToes
        {
          OFFSET -0.04 -4.41509 8.4991
          CHANNELS 3 Zrotation Xrotation Yrotation
          End Site
          {
            OFFSET 0.08 -0.047448 9.77979
          }
        }
      }
    }
  }
  JOINT Spine
  {
    OFFSET 0 11.8905 0
    CHANNELS 3 Zrotation Xrotation Yrotation
    JOINT Spine1
    {
      OFFSET 0 25.6574 0.127663
      CHANNELS 3 Zrotation Xrotation Yrotation
      JOINT RightShoulder
      {
        OFFSET -8.99 -0.362252 -0.22
        CHANNELS 3 Zrotation Xrotation Yrotation
        JOINT RightArm
        {
          OFFSET -10.2827 -0.00338 0.322123
          CHANNELS 3 Zrotation Xrotation Yrotation
          JOINT RightForeArm
          {
            OFFSET -26.364 0.099144 -1.42434
            CHANNELS 3 Zrotation Xrotation Yrotation
            JOINT RightHand
            {
              OFFSET -22.0324 0.085362 1.02216
              CHANNELS 3 Zrotation Xrotation Yrotation
              End Site
              {
                OFFSET -13.3284 -0.6 1.50291
              }
            }
          }
        }
      }
      JOINT LeftShoulder1
      {
        OFFSET 8.99 -0.362252 -0.22
        CHANNELS 3 Zrotation Xrotation Yrotation
        JOINT LeftArm
        {
          OFFSET 10.2827 -0.00337999 0.322123
          CHANNELS 3 Zrotation Xrotation Yrotation
          JOINT LeftForeArm
          {
            OFFSET 26.2597 0.099144 -1.42434
            CHANNELS 3 Zrotation Xrotation Yrotation
            JOINT LeftHand
            {
              OFFSET 22.0902 0.085362 1.02216
              CHANNELS 3 Zrotation Xrotation Yrotation
              End Site
              {
                OFFSET 13.419 -0.6 1.50291
              }
            }
          }
        }
      }
      JOINT Head
      {
        OFFSET 0 8.73416 0.011341
        CHANNELS 3 Zrotation Xrotation Yrotation
        End Site
        {
          OFFSET -0.29 12.7742 2.51395
        }
      }
    }
  }
  JOINT RightUpLeg
  {
    OFFSET -8.9458 -8.66707 0.101652
    CHANNELS 3 Zrotation Xrotation Yrotation
    JOINT RightLeg
    {
      OFFSET 0 -44.4227 1.3727
      CHANNELS 3 Zrotation Xrotation Yrotation
      JOINT RightFoot
      {
        OFFSET 0.253549 -42.0924 -1.46059
        CHANNELS 3 Zrotation Xrotation Yrotation
        JOINT RightToes
        {
          OFFSET 0.04 -4.41509 8.4991
          CHANNELS 3 Zrotation Xrotation Yrotation
          End Site
          {
            OFFSET -0.08 -0.137448 9.77979
          }
        }
      }
    }
  }
}
MOTION
Frames:	17
Frame Time:	0.0333333
37.4097 101.573 8.35894 -9.25207 -0.295444 -94.6254 -1.98612 1.30314 4.20149 -1.14663 14.8099 26.9204 -1.50234 -11.8928 0.000365674 -1.32944e-009 8.7522e-006 -1.45884e-008 1.6583 14.308 -0.943336 -1.60219 -1.96658 -0.516452 33.8642 1.69634 0.200344 45.0881 0.570052 26.7035 7.28401 30.9587 12.6368 -8.65936 9.50439 0.367941 -45.8652 3.64146 -3.40796 -25.533 -20.6382 -1.73616 -10.7319 45.1616 -4.95021 5.82328 9.61819 -0.917488 -0.322069 -11.1123 1.97127 -2.79012 -2.32561 -3.64244 -1.26058 16.4516 -9.67312 5.21583 -9.46342 -0.101211 0.0462048 0.000530889 0.662642 
36.4318 101.744 8.1386 -9.15627 -0.0535586 -93.6333 -1.63496 2.06683 3.99875 -0.895293 14.291 26.0545 -1.74318 -12.0072 -0.00964698 -1.32944e-009 8.7522e-006 -1.45884e-008 1.8837 13.5513 -1.0051 -1.01797 -1.86223 -0.649417 33.6068 1.68582 0.198118 49.4194 -10.3808 24.7216 10.088 39.2647 6.34563 -9.2085 9.50424 -0.0182631 -45.4809 3.61235 -3.4088 -27.2807 -18.6507 -1.48326 -7.7431 40.8629 -9.43121 5.82328 9.61819 -0.917488 -0.729076 -10.6049 1.25004 -2.86962 -0.74425 -4.97874 -0.361698 14.4591 -9.40778 5.25497 -9.2873 -0.106178 0.0462048 0.000530889 0.662642 
35.4774 101.929 7.81872 -8.78429 0.00934004 -92.3353 -1.32503 2.57878 3.71801 -0.693324 13.5357 24.9754 -1.9972 -11.9249 -0.0185353 -1.32944e-009 8.7522e-006 -1.45884e-008 1.27722 12.4463 -0.992491 0.355775 -1.78641 -0.893748 34.0034 1.69132 0.174855 50.6112 -18.0394 22.8051 12.4798 44.0129 0.430812 -9.47887 9.51996 -0.405755 -45.2561 3.59901 -3.4163 -28.7645 -14.534 -1.48415 -5.43737 35.4667 -13.4806 5.82328 9.61819 -0.917488 -0.932318 -10.0731 0.452934 -2.68938 0.409326 -5.4251 0.252556 12.8896 -10.4305 4.17267 -8.75928 -0.139027 0.0462048 0.000530889 0.662642 
34.6034 102.049 7.48744 -8.23804 0.0538332 -91.2989 -1.04364 2.73191 3.49398 -0.500278 13.018 24.1133 -2.16838 -11.9471 -0.0253118 -1.32944e-009 8.7522e-006 -1.45884e-008 0.957498 11.3448 -0.89026 1.09105 -1.81427 -0.914902 34.9929 1.71453 0.141265 49.2048 -22.0088 20.3132 13.739 45.7162 -3.83653 -9.56589 9.53853 -0.706278 -45.3013 3.61925 -3.44845 -29.3706 -8.83886 -1.82314 -3.5698 30.1457 -17.1758 5.82328 9.61819 -0.917488 -0.817733 -9.71138 -0.500256 -2.34191 1.13853 -5.42627 0.413782 11.8701 -11.609 3.91243 -8.86879 -0.137738 0.0462048 0.000530889 0.662642 
33.8563 102.101 7.20995 -7.77413 0.0745978 -90.6231 -0.838647 2.75121 3.36694 -0.333752 12.8322 23.4893 -2.31647 -12.1054 -0.0332182 -1.32944e-009 8.7522e-006 -1.45884e-008 1.22992 10.5604 -0.765379 0.854395 -1.78904 -0.723961 35.8091 1.73819 0.125102 47.347 -24.8824 17.3723 14.489 46.8978 -6.5738 -9.633 9.56123 -1.04734 -45.2791 3.63324 -3.47858 -29.5915 -4.04028 -2.41806 -1.62012 26.8877 -20.6235 5.82328 9.61819 -0.917488 -0.541722 -9.94409 -1.45201 -2.09724 1.69235 -5.34527 0.500629 10.9602 -12.3114 4.43255 -9.30257 -0.118473 0.0462048 0.000530889 0.662642 
33.2609 102.131 6.96335 -7.50104 -4.5798e-016 -90 -0.746389 2.80672 3.25167 -0.192451 12.7958 22.8479 -2.50193 -12.2167 -0.0423019 -1.32944e-009 8.7522e-006 -1.45884e-008 1.48119 10.2287 -0.72096 0.502704 -1.69876 -0.600821 36.0155 1.75252 0.140899 45.4734 -26.2499 14.0071 14.5568 47.0571 -7.2674 -9.46945 9.60173 -1.51949 -45.1268 3.62496 -3.48531 -29.8721 -2.27913 -3.06738 0.248831 26.5734 -23.6917 5.82328 9.61819 -0.917488 -0.335369 -10.8949 -2.18491 -1.96993 2.04116 -5.33231 0.577336 10.4836 -12.895 4.42903 -9.49621 -0.112187 0.0462048 0.000530889 0.662642 
32.8047 102.149 6.72038 -7.33051 -0.142311 -89.2437 -0.708406 2.85341 3.10797 -0.0470568 12.7952 22.1545 -2.6846 -12.2654 -0.050563 -1.32944e-009 8.7522e-006 -1.45884e-008 1.42874 10.3376 -0.792925 0.516226 -1.78635 -0.670737 35.835 1.75884 0.172051 43.5543 -26.0812 10.5212 14.2299 46.644 -6.39554 -8.99554 9.64681 -1.94077 -45.1184 3.62607 -3.4887 -29.9927 -3.0899 -3.42896 1.67621 28.1345 -26.6402 5.82328 9.61819 -0.917488 -0.242199 -12.1701 -2.64729 -1.83705 2.14239 -5.27507 0.550621 10.6837 -13.77 4.04342 -9.69641 -0.11255 0.0462048 0.000530889 0.662642 
32.4189 102.145 6.50164 -7.1401 -0.23867 -88.6508 -0.660588 2.8689 2.9981 0.0710014 12.7427 21.6433 -2.82786 -12.3547 -0.0581179 -1.32944e-009 8.7522e-006 -1.45884e-008 1.40819 10.6664 -0.928374 0.508597 -2.15333 -0.805796 35.549 1.75733 0.194274 41.8267 -25.0322 7.31654 13.8518 46.4131 -4.92445 -8.5507 9.66874 -2.0728 -45.2911 3.65287 -3.51441 -29.7707 -4.35245 -3.00388 3.21189 29.7486 -30.3372 5.82328 9.61819 -0.917488 -0.218129 -13.24 -2.88135 -1.72927 2.14558 -5.20356 0.531981 11.001 -14.5096 4.09057 -10.1585 -0.097859 0.0462048 0.000530889 0.662642 
32.0211 102.153 6.32203 -6.85703 -0.308094 -88.4706 -0.609398 2.93521 2.96911 0.0834944 12.4761 21.476 -2.97594 -12.4168 -0.0655288 -1.32944e-009 8.7522e-006 -1.45884e-008 1.58978 10.804 -1.04719 0.158469 -2.51502 -0.865066 35.2319 1.74718 0.198738 40.639 -23.9584 4.64456 13.3964 46.3133 -3.37142 -8.32352 9.66587 -1.92494 -45.3701 3.68175 -3.55798 -29.5611 -6.49977 -1.42141 5.75943 31.719 -35.5992 5.82328 9.61819 -0.917488 -0.26977 -13.8969 -2.89286 -1.723 2.13765 -5.21546 0.614798 10.9495 -14.6497 4.28948 -10.5392 -0.081774 0.0462048 0.000530889 0.662642 
31.5936 102.202 6.15922 -6.4777 -0.379812 -88.7133 -0.568963 3.09344 3.00254 -0.015624 11.9304 21.6219 -3.15573 -12.327 -0.0711343 -1.32944e-009 8.7522e-006 -1.45884e-008 1.8152 10.5043 -1.08356 -0.404509 -2.54898 -0.811035 35.017 1.73372 0.185951 39.9094 -23.4447 2.6323 12.816 45.9226 -1.95072 -8.0735 9.6603 -1.71088 -45.2401 3.69151 -3.59625 -29.5783 -9.59687 1.14372 8.82053 33.2313 -41.6894 5.82328 9.61819 -0.917488 -0.339257 -14.2413 -2.70669 -1.73389 2.0828 -5.20103 0.667824 10.6667 -14.4103 4.09707 -10.5918 -0.0849938 0.0462048 0.000530889 0.662642 
31.182 102.268 5.99699 -6.09123 -0.410369 -89.2375 -0.498104 3.34742 3.10321 -0.150652 11.2001 21.9784 -3.29287 -12.1645 -0.0730031 -1.32944e-009 8.7522e-006 -1.45884e-008 2.08732 9.9642 -1.01823 -1.04977 -2.32842 -0.642 35.063 1.72566 0.161664 39.3131 -23.5734 1.33648 12.289 45.2842 -0.965274 -7.70516 9.66656 -1.6176 -45.0551 3.6869 -3.61538 -29.6181 -12.6208 3.97972 10.5488 33.3375 -46.3094 5.82328 9.61819 -0.917488 -0.295754 -14.3532 -2.44799 -1.6249 2.01473 -5.00239 0.567587 10.3858 -14.1458 3.86366 -10.5799 -0.091407 0.0462048 0.000530889 0.662642 
30.8239 102.305 5.84114 -5.80735 -0.387654 -89.8477 -0.370472 3.70982 3.29851 -0.272195 10.425 22.4132 -3.32558 -12.0887 -0.0731211 -1.32944e-009 8.7522e-006 -1.45884e-008 2.47799 9.55683 -0.89507 -1.68926 -2.1843 -0.406164 35.2511 1.72151 0.139383 38.8547 -24.0646 0.745085 12.0188 44.805 -0.665383 -7.48843 9.67687 -1.67489 -44.9448 3.68057 -3.61996 -29.5391 -14.7895 6.3571 10.5061 32.715 -48.0702 5.82328 9.61819 -0.917488 -0.18671 -14.2019 -2.24296 -1.42408 2.00877 -4.71322 0.411554 10.1261 -13.8301 3.98204 -10.7126 -0.0845409 0.0462048 0.000530889 0.662642 
30.5193 102.316 5.68635 -5.63455 -0.276048 -90.379 -0.236192 4.09872 3.52219 -0.386053 9.76802 22.7788 -3.33469 -12.0889 -0.0758097 -1.32944e-009 8.7522e-006 -1.45884e-008 2.71415 9.36112 -0.784705 -1.99159 -2.20941 -0.23971 35.3039 1.71813 0.132512 38.7792 -24.5932 0.824443 12.0017 44.6621 -0.910993 -7.51882 9.68094 -1.7589 -44.9662 3.6854 -3.626 -29.3686 -15.9785 7.91516 9.8999 32.4376 -47.3007 5.82328 9.61819 -0.917488 -0.253308 -13.8504 -2.08059 -1.26968 2.03634 -4.54227 0.339189 9.92952 -13.4017 4.10921 -10.8553 -0.0762468 0.0462048 0.000530889 0.662642 
30.2608 102.33 5.51905 -5.49573 -0.287385 -90.8033 -0.147785 4.35537 3.66617 -0.474975 9.37003 23.012 -3.44476 -12.055 -0.0793638 -1.32944e-009 8.7522e-006 -1.45884e-008 2.50947 9.17802 -0.723207 -1.72837 -2.18349 -0.236282 35.1945 1.71545 0.140754 39.0851 -24.9308 1.50355 12.0468 44.5867 -1.1854 -7.57803 9.68264 -1.78287 -45.1793 3.71325 -3.6472 -29.1316 -16.1865 8.53 9.09416 32.6144 -44.4091 5.82328 9.61819 -0.917488 -0.546664 -13.5008 -1.871 -1.19083 2.03848 -4.47754 0.317709 9.84648 -13.0504 3.95309 -10.9148 -0.0729384 0.0462048 0.000530889 0.662642 
30.048 102.354 5.34929 -5.35277 -0.339736 -91.0864 -0.102589 4.46902 3.72467 -0.4909 9.16537 23.1729 -3.63881 -11.9682 -0.0827437 -1.32944e-009 8.7522e-006 -1.45884e-008 2.11647 8.94408 -0.707319 -1.28412 -2.01647 -0.323887 35.1579 1.71344 0.147987 39.5316 -24.9134 2.55391 11.9554 44.1907 -0.965145 -7.59843 9.68305 -1.80977 -45.4618 3.74769 -3.67022 -28.9287 -15.153 8.17579 7.30859 32.3932 -39.3005 5.82328 9.61819 -0.917488 -0.761161 -13.2653 -1.61133 -1.11162 2.03038 -4.36931 0.259475 9.79525 -12.9015 3.79968 -10.9878 -0.0712917 0.0462048 0.000530889 0.662642 
29.8747 102.37 5.19576 -5.23863 -0.370575 -91.3144 -0.091424 4.59993 3.73282 -0.44198 8.91666 23.3591 -3.79229 -11.8723 -0.0848747 -1.32944e-009 8.7522e-006 -1.45884e-008 1.98467 8.83074 -0.733053 -1.23758 -1.93632 -0.37645 35.3057 1.71204 0.14219 40.03 -24.4899 3.63894 11.6667 43.382 -0.0535808 -7.69213 9.68237 -1.88482 -45.5089 3.74639 -3.66055 -28.9605 -12.5367 7.1091 4.44371 30.8548 -32.4998 5.82328 9.61819 -0.917488 -0.634833 -13.0691 -1.39407 -1.03154 2.02544 -4.24205 0.199612 9.74311 -12.8126 3.84758 -11.1104 -0.0709827 0.0462048 0.000530889 0.662642 
29.7294 102.372 5.05041 -5.17319 -0.420746 -91.4898 -0.116947 4.81381 3.71076 -0.386743 8.55476 23.558 -3.87394 -11.7758 -0.0849633 -1.32944e-009 8.7522e-006 -1.45884e-008 2.06984 8.92755 -0.78973 -1.53284 -2.10066 -0.385054 35.4769 1.71121 0.137507 40.6853 -23.6709 4.59449 11.1985 42.3171 1.46165 -7.71766 9.68163 -1.89176 -45.2882 3.70523 -3.61528 -29.097 -9.18718 5.90806 1.54136 28.6068 -25.641 5.82328 9.61819 -0.917488 -0.317896 -12.8522 -1.25921 -1.02203 1.99453 -4.23902 0.220775 9.78717 -12.6435 3.8537 -11.2144 -0.0716625 0.0462048 0.000530889 0.662642 
